# xmcd CD database file
#
# Track frame offsets:
#	150
#	14032
#	28462
#	43197
#	55990
#	70652
#	71882
#	84572
#	97367
#	97987
#	109717
#	122212
#	125740
#	139997
#	152925
#	165862
#	178382
#	182397
#	193185
#	193690
#
# Disc length: 2732 seconds
#
# Revision: 3
# Processed by: cddbd v1.5.1PL0 Copyright (c) Steve Scherf et al.
# Submitted via: CDex 1.51
#
DISCID=340aaa14
DTITLE=Miles Davis - First Miles
DYEAR=1947
DGENRE=Jazz
TTITLE0=That's The Stuff You Gotta Watch (Alt 1)
TTITLE1=That's The Stuff You Gotta Watch (Alt 2)
TTITLE2=That's The Stuff You Gotta Watch
TTITLE3=Pointless Mama Blues
TTITLE4=Deep Sea Blues
TTITLE5=Bring It On Home (F.S Alt)
TTITLE6=Bring It On Home (Alt 2)
TTITLE7=Bring It On Home
TTITLE8=Milestones (F.S Alt)
TTITLE9=Milestones
TTITLE10=Milestones (Alt 3)
TTITLE11=Little Willie Leaps (F.S Alt)
TTITLE12=Little Willie Leaps (Alt 2)
TTITLE13=Little Willie Leaps
TTITLE14=Half Nelson (Alt 1)
TTITLE15=Half Nelson
TTITLE16=Sippin' At Bells (F.S Alt)
TTITLE17=Sippin' At Bells
TTITLE18=Sippin' At Bells (F.S Alt)
TTITLE19=Sippin' At Bells (Alt 4)
EXTD=1945/1947 with Rubberlegs Williams, Herbie Fields, Charlie Parker, John Lewis, Max Roach... YEAR: 1947
EXTT0=
EXTT1=
EXTT2=
EXTT3=
EXTT4=
EXTT5=
EXTT6=
EXTT7=
EXTT8=
EXTT9=
EXTT10=
EXTT11=
EXTT12=
EXTT13=
EXTT14=
EXTT15=
EXTT16=
EXTT17=
EXTT18=
EXTT19=
PLAYORDER=
